<?xml version="1.0" encoding="UTF-8"?>
<svg id="apple" xmlns="http://www.w3.org/2000/svg" viewBox="0 0 162 171.71">
  <g id="a-base">
    <path id="a-base-red-fill" d="M86.36,19.24c-3.66-.53-46.76-6.1-70.96,22.78-23.8,28.41-9.89,66.95-.1,94.08,9.1,25.23,20.07,29.81,24.1,31.19,5.43,1.86,11.22,1.66,13.27,1.59,8.35-.29,12.92-2.89,18.13-4.33,13.1-3.62,20.64,2.73,29.88,3.02,22.48.69,43.62-34.93,51.88-59.36,5.89-17.44,18.53-54.8-3.7-77.42-21.9-22.28-59.97-12.26-62.5-11.56Z" style="fill: #db2828; stroke: #db2828; stroke-miterlimit: 10;"/>
    <path id="a-base-light-shade" d="M152.05,73.59c-2.3.24-2.21-11.81-12.3-27.86-7.38-11.74-14.3-16.21-13.06-17.98,1.6-2.3,15.84,1.29,23.42,11.6,9.97,13.56,4.9,33.94,1.94,34.24Z" style="fill: #ef5656;"/>
    <path id="a-base-dark-shade" d="M11.09,46.97c-.95,11.77-3.15,56.4,27.92,92.31,10.79,12.47,22.66,20.49,32.22,25.62-3.38,2.34-12.25,7.8-23.61,6.66-1.19-.12-7.06-.92-13.83-4.77-18.74-10.66-24.74-36.28-29.79-57.87,0,0-7.17-28.13-2.31-44.21,1.91-6.31,4.98-11.95,5.03-12.03h0c1.56-2.82,3.02-4.65,4.38-5.72Z" style="fill: #ad1a1a;"/>
  </g>
  <g id="a-leaf">
    <path id="a-leaf-green-fill" d="M83.33,24.79c3.58-6.31,7.15-12.61,10.73-18.92,2.54-5.28,9.98-7.11,14.41-5.03,4.08,1.91,5.84,7.23,2.37,11.57-6.3,6.29-12.6,12.58-18.91,18.87-.66.22-2.73.8-4.82.12-2.73-.9-4.41-3.6-3.79-6.6Z" style="fill: #68932b;"/>
  </g>
  <g id="a-stem">
    <path id="a-stem-brown-fill" d="M83.15,31.73s-.75-11.91-7.23-26.38c-.41-1.54.44-3.11,1.86-3.6,1.29-.45,2.78.11,3.51,1.35,0,0,7.36,25.56,6.06,28.53l-4.21.1Z" style="fill: #513619;"/>
    <path id="a-stem-line" d="M70.54,27.81s14.57,9.48,30.91-.73" style="fill: none; stroke: #7f1206; stroke-miterlimit: 10; stroke-width: .5px;"/>
  </g>
</svg>