<?xml version="1.0" encoding="UTF-8"?>
<svg id="blueberry" xmlns="http://www.w3.org/2000/svg" viewBox="0 0 143.48 185.56">
  <g id="b-left-leaf">
    <path id="b-left-leaf-green-fill" d="M104.12,57.02c.23-3.5,1.19-23.58-14.03-40.03C72.51-1.99,48.18-.09,45.33.18c-4.47,6.86-8.92,16.14-10.33,27.54-5.06,40.9,33.65,70.56,36.54,72.71l32.57-43.41Z" style="fill: #297531;"/>
    <path id="b-left-leaf-shade" d="M47.71,4.61c1.12.56-.98,6.87-2.99,12.91-2.64,7.94-4.49,13.49-5.6,13.29-1.41-.26-2.1-9.76,1.86-18.02,2.15-4.5,5.71-8.68,6.72-8.18Z" style="fill: #229b00;"/>
  </g>
  <g id="b-right-leaf">
    <path id="b-right-leaf-green-fill" d="M73.91,60.05c-.23-3.5-1.19-23.58,14.03-40.03C105.52,1.04,129.85,2.94,132.7,3.21c4.47,6.86,8.92,16.14,10.33,27.54,5.06,40.9-33.65,70.56-36.54,72.71l-32.57-43.41Z" style="fill: #4a9955;"/>
    <path id="b-right-leaf-shade" d="M133.48,47.24c-1.56-.2-.31-7.6-3.23-24.06-1.88-10.63-3.74-15.07-2.58-15.63,1.64-.78,8.55,6.6,10.73,15.91,2.8,11.95-2.89,24.03-4.92,23.78Z" style="fill: #56c13d;"/>
  </g>
  <g id="b-base">
    <path id="b-base-blue-fill" d="M89.03,47.4c-.82-1.51-2-3.93-2.97-7.09-.95-3.08-.92-4.3-2.09-5.37-2.48-2.27-7.14-.89-8.59-.47-5.63,1.66-8.87,6.07-10.17,8.14-7.65-5.27-12.17-5.23-14.89-4.16-2.32.91-3.25,2.53-7.77,5.64-3.18,2.19-6,3.65-7.87,4.53-1.76-.07-4.24-.15-7.21-.12-5.52.05-6.56.38-7.29,1.13-1.3,1.33-.92,3.53-.33,7.31.48,3.08,1.27,5.55,1.91,7.23C16.39,69.79.59,87.81,0,114.11c-.06,2.79.11,11.52,2.84,20.85,10.91,37.28,49.98,58.65,87.26,47.74,37.28-10.91,58.65-49.98,47.74-87.26-7.1-24.26-26.12-41.77-48.82-48.04Z" style="fill: #5885dd;"/>
    <path id="b-base-long-shade" d="M89.86,55.09c-14.85-4.25-27.72-.19-36.44,2.56-5.91,1.86-19.98,6.49-32.19,19.55-7.08,7.56-12.96,17.35-11.58,18.64,2.34,2.18,17.83-19.21,47.68-28.98,3.06-1,7.05-2.27,11.75-3.2-.78,1.06-1.22,2.2-1.15,3.39.24,4.31,6.51,7.47,14.02,7.05,7.5-.42,13.39-4.25,13.15-8.56-.03-.54-.15-1.05-.36-1.55,12.13,2.94,19.63,8.91,20.23,7.94.92-1.48-10.09-12.55-25.11-16.85Z" style="fill: #81a7e2;"/>
    <ellipse id="b-base-short-shade" cx="82.57" cy="85.39" rx="7.97" ry="4.58" transform="translate(-4.59 4.69) rotate(-3.17)" style="fill: #81a7e2;"/>
  </g>
</svg>