<?xml version="1.0" encoding="UTF-8"?>
<svg id="Layer_2" data-name="Layer 2" xmlns="http://www.w3.org/2000/svg" xmlns:xlink="http://www.w3.org/1999/xlink" viewBox="0 0 186.73 37.96">
  <defs>
    <linearGradient id="linear-gradient" x1="39.35" y1="29.05" x2="39.35" y2="0" gradientUnits="userSpaceOnUse">
      <stop offset="0" stop-color="#3b5789"/>
      <stop offset="1" stop-color="#80bee0"/>
    </linearGradient>
    <linearGradient id="linear-gradient-2" x1="69.11" y1="35.9" x2="69.11" y2="7.02" xlink:href="#linear-gradient"/>
    <linearGradient id="linear-gradient-3" x1="94.97" y1="29.13" x2="94.97" y2=".25" xlink:href="#linear-gradient"/>
    <linearGradient id="linear-gradient-4" x1="114.98" y1="37.96" x2="114.98" y2="12.04" xlink:href="#linear-gradient"/>
    <linearGradient id="linear-gradient-5" x1="131.5" y1="29.54" x2="131.5" y2=".75" xlink:href="#linear-gradient"/>
    <linearGradient id="linear-gradient-6" x1="154.94" y1="35.4" x2="154.94" y2="6.53" xlink:href="#linear-gradient"/>
  </defs>
  <g id="V10">
    <circle cx="115.36" cy="2.53" r=".65" style="fill: #80bee0;"/>
    <circle cx="114.71" cy="8.07" r="1.47" style="fill: #80bee0;"/>
    <circle cx="113.34" cy="4.84" r="1.05" style="fill: #80bee0;"/>
    <circle cx="1.63" cy="19.74" r="1.63" style="fill: #e6d38c;"/>
    <circle cx="10.77" cy="22.92" r="1.33" style="fill: #e27184;"/>
    <circle cx="21.8" cy="19.74" r="2.86" style="fill: #fbb278;"/>
    <circle cx="10.77" cy="14.82" r="1.89" style="fill: #80bee0;"/>
    <circle cx="18.09" cy="5.32" r="1.92" style="fill: #e2bcd9;"/>
    <circle cx="19.86" cy="12.6" r="1.1" style="fill: #e6d38c;"/>
    <circle cx="11.32" cy="8.08" r="1.05" style="fill: #fbb278;"/>
    <circle cx="167.6" cy="10.59" r="1.55" style="fill: #e6d38c;"/>
    <circle cx="171.23" cy="8.99" r="1.29" style="fill: #e2bcd9;"/>
    <circle cx="180.26" cy="9.93" r=".8" style="fill: #fbb278;"/>
    <circle cx="175.54" cy="11.97" r="1" style="fill: #80bee0;"/>
    <circle cx="186.11" cy="12.44" r=".62" style="fill: #e27184;"/>
    <circle cx="168.31" cy="32.45" r="1.29" style="fill: #fbb278;"/>
    <circle cx="176.75" cy="32.1" r=".8" style="fill: #e2bcd9;"/>
    <circle cx="171.37" cy="29.31" r="1" style="fill: #80bee0;"/>
    <circle cx="182.06" cy="28.72" r=".62" style="fill: #e6d38c;"/>
    <path d="M39.26,29.05c-2.49,0-4.77-.59-6.82-1.78s-3.68-2.89-4.89-5.11c-1.2-2.22-1.8-4.85-1.8-7.9s.6-5.63,1.8-7.75c1.2-2.11,2.82-3.73,4.86-4.84,2.04-1.11,4.32-1.67,6.84-1.67s4.82.55,6.89,1.65c2.07,1.1,3.72,2.71,4.95,4.82,1.23,2.11,1.85,4.7,1.85,7.75s-.62,5.69-1.85,7.9c-1.23,2.22-2.88,3.93-4.95,5.13-2.07,1.2-4.37,1.8-6.89,1.8ZM39.26,23.55c1.5,0,2.8-.38,3.92-1.14,1.12-.76,1.99-1.84,2.62-3.24.63-1.39.95-3.02.95-4.86s-.32-3.47-.97-4.78c-.65-1.31-1.53-2.3-2.66-2.99-1.13-.69-2.41-1.03-3.85-1.03s-2.71.35-3.81,1.03c-1.1.69-1.96,1.69-2.58,2.99-.62,1.31-.92,2.9-.92,4.78s.3,3.47.9,4.86c.6,1.39,1.45,2.47,2.55,3.24,1.1.76,2.38,1.14,3.85,1.14Z" style="fill: url(#linear-gradient);"/>
    <path d="M62.82,35.81c-.88,0-1.61-.23-2.2-.68-.59-.45-.95-1.27-1.1-2.44-.21-1.85-.35-3.79-.42-5.83-.07-2.04-.11-3.87-.11-5.48s.02-3.43.07-5.37c.04-1.94.2-3.89.46-5.85.12-.82.41-1.45.88-1.89.47-.44,1.2-.75,2.2-.95,1-.19,2.35-.29,4.05-.29,2.61,0,4.69.32,6.23.95,1.54.63,2.66,1.54,3.35,2.73.69,1.19,1.03,2.62,1.03,4.29,0,1.5-.33,2.77-.99,3.83-.66,1.06-1.49,1.92-2.49,2.6-.12.09-.21.19-.29.31-.07.12-.11.26-.11.44,0,.21.03.38.09.53.06.15.15.29.26.44.35.53.81,1.2,1.36,2.02.56.82,1.12,1.69,1.69,2.6.57.91,1.08,1.78,1.52,2.62s.72,1.55.84,2.13c.18,1,0,1.81-.53,2.44-.53.63-1.26.95-2.2.95-.85,0-1.56-.24-2.11-.73-.56-.48-1.04-1.11-1.45-1.87-1.14-2.05-2.05-3.71-2.73-4.97-.68-1.26-1.22-2.24-1.63-2.95-.41-.76-.74-1.24-.99-1.43-.25-.19-.62-.29-1.12-.29-.53,0-.87.12-1.01.35-.15.24-.22.54-.22.92,0,.88.02,1.68.04,2.4.03.72.06,1.51.09,2.38.03.87.04,1.96.04,3.28,0,.76-.21,1.42-.62,1.98-.41.56-1.04.84-1.89.84ZM66.65,19.44c1.32,0,2.35-.19,3.08-.57.73-.38,1.25-.89,1.54-1.52.29-.63.44-1.3.44-2,0-1.38-.39-2.33-1.17-2.86s-2.06-.79-3.85-.79c-.56,0-.97.06-1.23.18-.26.12-.44.43-.53.92-.09.5-.13,1.31-.13,2.42,0,1.29.04,2.24.11,2.84.07.6.24.98.51,1.14.26.16.67.24,1.23.24Z" style="fill: url(#linear-gradient-2);"/>
    <path d="M94.51,29.13c-1.73,0-3.17-.07-4.31-.2-1.14-.13-2.07-.35-2.77-.66-.7-.31-1.23-.73-1.58-1.25-.35-.53-.59-1.19-.7-1.98-.21-1.23-.35-2.71-.44-4.42s-.13-3.73-.13-6.05c0-2.08.04-3.96.13-5.63s.23-3.13.44-4.36c.18-1.06.54-1.9,1.1-2.53.56-.63,1.44-1.09,2.64-1.36,1.2-.28,2.83-.42,4.89-.42,2.58,0,4.61.35,6.07,1.03,1.47.69,2.51,1.6,3.13,2.73.62,1.13.92,2.34.92,3.63s-.25,2.34-.75,3.24c-.5.9-1.22,1.62-2.16,2.18-.29.21-.53.37-.7.48-.18.12-.26.25-.26.4,0,.24.32.46.97.66,1.35.47,2.42,1.24,3.21,2.31.79,1.07,1.19,2.49,1.19,4.25,0,1.35-.37,2.63-1.1,3.83-.73,1.2-1.9,2.19-3.5,2.97-1.6.78-3.69,1.17-6.27,1.17ZM94.2,24.29c1.67,0,2.99-.34,3.96-1.01.97-.67,1.45-1.69,1.45-3.04s-.57-2.25-1.72-2.88c-1.14-.63-3.04-.95-5.68-.95-.88,0-1.44.1-1.67.29-.24.19-.35.58-.35,1.17,0,.68.02,1.34.04,1.98.03.65.06,1.32.09,2.02.03.7.13,1.23.31,1.58.18.35.54.58,1.08.68.54.1,1.37.15,2.49.15ZM92.22,11.92c2.08,0,3.62-.33,4.62-.99,1-.66,1.5-1.46,1.5-2.4,0-1.2-.38-2.08-1.14-2.64-.76-.56-1.91-.84-3.43-.84-1.35,0-2.23.12-2.64.35-.41.24-.65.78-.7,1.63-.03.5-.06,1.02-.09,1.56-.03.54-.04,1.14-.04,1.78s.12,1.06.35,1.25c.24.19.76.29,1.58.29Z" style="fill: url(#linear-gradient-3);"/>
    <path d="M114.98,37.96c-1.09,0-1.86-.4-2.33-1.19-.2-.34-.37-.99-.48-1.93-.12-.94-.21-2.23-.26-3.88-.06-1.64-.09-3.67-.09-6.08s.03-4.52.09-6.08c.06-1.56.15-2.78.26-3.66.12-.87.28-1.5.48-1.87.47-.82,1.25-1.23,2.33-1.23s1.91.41,2.38,1.23c.2.34.37.95.48,1.83.12.87.2,2.1.24,3.68.04,1.58.07,3.61.07,6.1s-.02,4.62-.07,6.22c-.04,1.6-.13,2.85-.24,3.74-.12.89-.29,1.53-.53,1.93-.41.8-1.19,1.19-2.33,1.19Z" style="fill: url(#linear-gradient-4);"/>
    <path d="M131.54,29.54c-.65,0-1.2-.13-1.67-.37s-.84-.67-1.1-1.25c-.26-.59-.4-1.38-.4-2.38v-2.57c0-1.07,0-2.24.02-3.52.01-1.28.03-2.57.04-3.87.02-1.31.03-2.55.04-3.72.01-1.17.02-2.19.02-3.06v-1.83c0-.44-.07-.74-.2-.9-.13-.16-.4-.24-.81-.24h-2.91c-.59,0-1.12-.16-1.58-.48-.47-.32-.7-.94-.7-1.85,0-.53.1-.97.31-1.32.2-.35.62-.63,1.25-.84.63-.2,1.56-.35,2.77-.44s2.82-.13,4.82-.13,3.65.04,4.86.13,2.14.24,2.77.44c.63.21,1.06.48,1.28.84.22.35.33.79.33,1.32,0,.91-.24,1.53-.7,1.85-.47.32-1,.48-1.58.48h-2.95c-.38,0-.65.08-.81.24-.16.16-.24.46-.24.9,0,.35,0,.96.02,1.83.02.87.02,1.89.02,3.06s.01,2.41.04,3.72c.03,1.31.04,2.6.04,3.87s0,2.45.02,3.52c.01,1.07.02,1.93.02,2.57,0,1-.12,1.79-.37,2.38-.25.59-.59,1.01-1.03,1.25s-.98.37-1.63.37Z" style="fill: url(#linear-gradient-5);"/>
    <path d="M154.65,35.4c-2.11,0-3.81-.07-5.08-.2-1.28-.13-2.24-.32-2.91-.57-.66-.25-1.1-.56-1.32-.95-.22-.38-.33-.82-.33-1.32,0-.53.11-1.08.33-1.65.22-.57.6-1.28,1.14-2.13.54-.85,1.29-1.94,2.24-3.26.95-1.32,2.16-2.99,3.63-5.02,1.44-2,2.57-3.57,3.39-4.71.82-1.14,1.41-1.99,1.76-2.53.35-.54.53-.87.53-.99,0-.32-.18-.48-.53-.48h-9.24c-1,0-1.69-.17-2.07-.51-.38-.34-.57-.81-.57-1.43,0-.5.12-.95.35-1.34.24-.4.68-.73,1.32-.99.64-.26,1.61-.46,2.88-.59,1.28-.13,2.94-.2,5-.2,2.2,0,3.95.07,5.26.2,1.31.13,2.27.34,2.91.62.63.28,1.04.65,1.23,1.1.19.46.29.99.29,1.61,0,.56-.12,1.16-.37,1.8-.25.65-.65,1.42-1.21,2.33-.56.91-1.32,2.03-2.29,3.37-.97,1.34-2.16,2.97-3.57,4.91-1.14,1.53-2.06,2.75-2.75,3.68s-1.22,1.64-1.58,2.13c-.37.5-.62.85-.75,1.06-.13.21-.2.37-.2.48,0,.26.2.4.62.4,1.32,0,2.81,0,4.47-.02,1.66-.01,3.32-.02,5-.02.94,0,1.58.18,1.91.55.34.37.51.86.51,1.47,0,.53-.12.99-.37,1.39-.25.4-.71.73-1.39.99-.68.26-1.67.47-2.99.62-1.32.15-3.07.22-5.24.22Z" style="fill: url(#linear-gradient-6);"/>
    <circle cx="27.01" cy="6.84" r="3.76" style="fill: #e27184;"/>
    <circle cx="164.43" cy="30.8" r="1.55" style="fill: #e27184;"/>
  </g>
</svg>