<?xml version="1.0" encoding="UTF-8"?>
<svg id="mango" xmlns="http://www.w3.org/2000/svg" xmlns:xlink="http://www.w3.org/1999/xlink" viewBox="0 0 131.28 194.14">
  <defs>
    <linearGradient id="linear-gradient" x1="131.31" y1="161.62" x2="12.87" y2="43.18" gradientTransform="translate(-5.35 14.55) rotate(-4.13)" gradientUnits="userSpaceOnUse">
      <stop offset="0" stop-color="#ffea00"/>
      <stop offset="1" stop-color="#db2828"/>
    </linearGradient>
  </defs>
  <g id="m-base">
    <path id="m-base-gradient-fill" d="M117.77,166.91c1.44,8.32,5.6,14.91,1.21,20.49-4.66,5.93-15.63,6.49-19.36,6.68-27.03,1.38-82.73-24.3-96.37-69.65C-8.9,84.02,14.86,36.42,43.22,31.42c5.57-.98,27.26-3.18,47.17,5.95.12.06,1.1.5,1.99.95,23.99,12.01,48.49,55.39,35.12,93.53-4.68,13.35-12.18,20.87-9.73,35.06Z" style="fill: url(#linear-gradient);"/>
    <path id="m-base-shade" d="M123.11,86.54c.9-.13,4.14,9.75,4.27,21.2.14,12.41-3.4,23.05-4.35,22.91-.76-.11.4-7.25.37-23.03-.03-14.38-1.02-20.97-.29-21.08Z" style="fill: #f9d595;"/>
  </g>
  <g id="m-stem">
    <path id="m-stem-brown-fill" d="M61.66,39.76s-.18-15.61,8.53-35.11c.47-2.04-1.07-4.02-3.4-4.52-2.12-.46-4.45.4-5.47,2.09,0,0-8.83,34.05-6.41,37.81.44.22,1.69.8,3.44.73,1.73-.07,2.9-.74,3.31-1Z" style="fill: #513619;"/>
  </g>
  <g id="m-right-leaf">
    <path id="m-right-leaf-green-fill" d="M64.85,12.31s24.31,34.16,43.89,39.84c0,0-.18-36.39-43.89-39.84Z" style="fill: #477c3d;"/>
    <path id="m-right-leaf-shade" d="M99.98,34.28c.8-.43-1.44-5.85-6.48-10.03-5.21-4.32-12.13-6.22-12.66-5.56-.39.48,2.78,2.17,9.62,7.75,6.8,5.55,8.91,8.16,9.52,7.84Z" style="fill: #71aa65;"/>
  </g>
  <g id="m-left-leaf">
    <path id="m-left-leaf-green-fill" d="M63.87,4.93s-30.31,30.8-50.72,34.03c0,0,6.87-35.96,50.72-34.03Z" style="fill: #477c3d;"/>
    <path id="m-left-leaf-shade" d="M39.71,20.61c-.95-.98-6.48,1.26-12.36,5.02-5.88,3.76-9.88,7.6-8.94,8.58.95.98,6.48-1.26,12.36-5.02s9.88-7.6,8.94-8.58Z" style="fill: #71aa65;"/>
  </g>
</svg>