<?xml version="1.0" encoding="UTF-8"?>
<svg id="orange" xmlns="http://www.w3.org/2000/svg" viewBox="0 0 110.66 112.54">
  <g id="o-bottom">
    <path id="o-bottom-base-orange-fill" d="M1.77,43.25c-.67,2.79-7.68,33.99,11.82,54.27,22.55,23.46,67.23,18.23,86.63-7.27,14.2-18.66,10.15-41.95,9.1-47.23-1.34,1.97-20.78,29.48-55.41,28.66C21.39,70.9,3.51,45.79,1.77,43.25Z" style="fill: #f4a134;"/>
    <ellipse id="o-bottom-top-shade" cx="55.39" cy="43.25" rx="53.93" ry="28.42" style="fill: #f7c992;"/>
    <path id="o-bottom-slice-1" d="M53.9,50.01c1.43-.15,2.76,1.44,3.28,2.12,3.31,4.6,6.63,9.19,9.94,13.79-1.99.89-5.76,2.27-10.72,2.35-6.28.11-10.92-1.92-12.91-2.92,4.36-5.87,6.57-9.79,7.78-12.49.36-.81,1.16-2.69,2.63-2.85Z" style="fill: #f4a134;"/>
    <ellipse id="o-bottom-slice-1-shade" cx="50.51" cy="57.81" rx="3.07" ry=".79" transform="translate(-22.34 82.02) rotate(-67.24)" style="fill: #f4d8b8;"/>
    <path id="o-bottom-slice-2" d="M95.88,55.73s-8.4,10.69-21.71,10.55c-9.23-9.39-13.25-14.88-12.06-16.46.48-.64,1.81-.64,4,0,9.92,1.97,19.85,3.94,29.77,5.91Z" style="fill: #f4a134;"/>
    <ellipse id="o-bottom-slice-2-shade" cx="68.64" cy="57.38" rx=".54" ry="4.19" transform="translate(-20.79 59.83) rotate(-41.46)" style="fill: #f4d8b8;"/>
    <path id="o-bottom-slice-3" d="M94.24,32.72c.39.12,5.63,1.84,7.23,7.33,1.57,5.4-1.78,9.6-2.07,9.94-10.75-1-21.51-2.01-32.26-3.01-1.72-.21-2.64-.6-2.77-1.16-.46-2.04,9.5-6.41,29.87-13.1Z" style="fill: #f4a134;"/>
    <path id="o-bottom-slice-4" d="M93.34,30.07c-.11-.52-1.2-5.11-7.82-8.29-6.22-2.99-12.36-2.37-13.22-2.27-2.84,5.7-10.19,19.66-9.27,20.26.94.62,21.89-6.65,30.31-9.7Z" style="fill: #f4a134;"/>
    <path id="o-bottom-slice-5" d="M43.26,18.76s13.08-5.44,24.26,1.33c-3.37,6.04-6.75,12.07-10.12,18.11-.23.51-.96,2.06-1.98,2.07-.93.01-1.63-1.24-1.98-1.87-1.48-2.72-5.26-9.96-10.19-19.65Z" style="fill: #f4a134;"/>
    <path id="o-bottom-slice-5-shade" d="M63.16,19.51c-.03.19-2.64-.36-7-.42-5.34-.08-8.51.63-8.55.42-.04-.24,3.76-1.53,8.39-1.41,3.93.1,7.18,1.19,7.15,1.41Z" style="fill: #f4d8b8;"/>
    <path id="o-bottom-slice-6" d="M18.61,30.91c.1-.52,1.14-5.12,7.72-8.39,6.18-3.07,12.33-2.52,13.19-2.43,2.91,5.66,10.43,19.54,9.52,20.15-.93.63-21.97-6.38-30.43-9.32Z" style="fill: #f4a134;"/>
    <ellipse id="o-bottom-slice-6-shade" cx="41.72" cy="27.74" rx=".54" ry="4.19" transform="translate(-8.28 24.58) rotate(-30)" style="fill: #f4d8b8;"/>
    <path id="o-bottom-slice-7" d="M13.77,32.61c-.39.14-5.53,2.11-6.85,7.68-1.3,5.47,2.26,9.5,2.56,9.83,10.69-1.54,21.38-3.08,32.07-4.61,1.71-.29,2.61-.73,2.71-1.3.35-2.06-9.81-5.93-30.49-11.6Z" style="fill: #f4a134;"/>
    <path id="o-bottom-slice-7-shade" d="M18.61,35.22c0,.31-1.24.24-4.45,1.09-3.01.79-4.18,1.44-4.37,1.14-.23-.37,1.14-1.99,2.99-2.73,2.72-1.08,5.84.01,5.82.5Z" style="fill: #f4d8b8;"/>
    <path id="o-bottom-slice-8" d="M13.03,55.04s8.4,10.69,21.71,10.55c9.23-9.39,13.25-14.88,12.06-16.46-.48-.64-1.81-.64-4,0-9.92,1.97-19.85,3.94-29.77,5.91Z" style="fill: #f4a134;"/>
  </g>
  <g id="o-top">
    <path id="o-top-orange-fill" d="M13.31,62.44c20.81,13.11,47.32,11.45,47.32,11.45,18.23-.74,29.12-6.02,34.14-8.93,0,0,11.96-6.95,14.25-15.46.64-2.36.65-4.68.65-4.68,0-.41,0-1.39-.37-3.75-1.21-7.78-3.26-10.85-3.89-11.74,0,0,0,0,0,0-.77-1.29-4.93-8.09-13.49-13.73-7.04-4.64-13.89-6.4-18.28-7.13-2.73,2-9.93,6.71-20.26,7.13-8.27.33-14.58-2.25-17.63-3.75-4,.27-14.29,1.54-23.19,9.41-2.49,2.2-8.91,7.88-10.69,17.25-.42,2.19-1.21,6.63.5,11.6,1.09,3.18,3.05,7.37,10.93,12.33Z" style="fill: #f4a134;"/>
    <path id="o-top-shade-orange-fill" d="M35.64,11.85c5.22.43,11.4.57,18.31,0,7.57-.62,14.16-1.94,19.58-3.38-1.11,1.45-2.72,3.15-4.91,4.72-3.21,2.3-7.95,4.49-14.03,4.03,0,0-12.78-.82-18.94-5.37Z" style="fill: #e08110;"/>
    <g id="o-leaf">
      <path id="_0-leaf-green-fill" data-name="0-leaf-green-fill" d="M54.82,16.9S36.98,13.64,35.43,0C35.43,0,50.25-.32,53.39,11.73l1.43,5.18Z" style="fill: #68932b;"/>
    </g>
    <g id="o-stem">
      <path id="o-stem-brown-fill" d="M54.32,17.23s-.19-4.74-2.62-10.55c-.15-.68.27-1.33.87-1.47.48-.11,1.02.14,1.29.62,0,0,2.68,10.23,2.14,11.4h-1.67Z" style="fill: #513619;"/>
    </g>
  </g>
</svg>