<?xml version="1.0" encoding="UTF-8"?>
<svg id="peach" xmlns="http://www.w3.org/2000/svg" viewBox="0 0 209.89 193.15">
  <g id="p-left-leaf">
    <path id="p-left-leaf-green-fill" d="M108.93,53.36S99.67-5.07,4.21.36c0,0-10.19,45.8,33.49,56.65l71.23-3.64Z" style="fill: #78c157;"/>
    <path id="p-left-leaf-shade" d="M81.74,20.24c-.26.6-9.83-4.08-26.61-8.95C33.85,5.11,20.03,4.15,20.12,3.39c.1-.81,15.66-1.17,33.33,3.89,16.23,4.65,28.59,12.27,28.29,12.97Z" style="fill: #88d672;"/>
  </g>
  <g id="p-right-leaf">
    <path id="p-right-leaf-green-fill" d="M99.32,41.84s40.22-39.71,110.58,18.54c0,0-18.1,41-57.85,24.6l-52.72-43.15Z" style="fill: #a2ea83;"/>
    <path id="p-right-leaf-shade" d="M186.76,52.3c-.3.52-8.37-5.17-22.08-9.95-18.98-6.61-33.19-6.03-33.13-6.82.05-.78,14.36-2.66,30.25,2.41,14.92,4.76,25.32,13.75,24.96,14.36Z" style="fill: #c8ffbb;"/>
  </g>
  <g id="p-base">
    <path id="p-base-pink-fill" d="M110.39,40.69c-3.64.22-6.62.96-8.67,1.6-1.59-1.51-3.89-3.5-6.88-5.52-15.02-10.1-34.51-11.86-49.22-7.76C15.28,37.47,4.29,71.14,3,75.21c-11.7,36.76,11.47,84.84,58.9,117.63,53.99-13.41,93.02-46.44,97.48-83.02.65-5.36,4.7-33.73-13.16-52.75-2.19-2.33-16.46-17.53-35.82-16.38Z" style="fill: #ffd2d2;"/>
    <path id="p-base-light-shade" d="M52.88,40.55c.12.49-.64,1.16-14.03,7.6-12.68,6.1-13.71,6.33-14.03,5.92-.94-1.22,4.13-8.21,11.6-11.81,7.46-3.6,16.09-3.2,16.46-1.71Z" style="fill: #ffe6e6;"/>
    <path id="p-base-dark-shade" d="M135.47,153.49c-.54,1.27-1.23,2.11-3.36,3.98-12.39,10.83-23.53,16.96-24.41,17.45-3.31,1.8-9.65,5.14-19.02,9.2-15.5,6.72-23.24,10.11-26.78,8.72-11.51-4.5-18.56-38.03-1.87-58.32,15.24-18.53,44.8-19.33,60.65-8.06,8.2,5.83,18.3,18.86,14.81,27.03Z" style="fill: #f9c7c7;"/>
    <path id="p-base-line" d="M84.11,57.01c-19.28,22.44-19.89,52.06-18.51,52.42,1.26.32,3.44-23.84,22.26-49.58,6.99-9.56,14.54-16.96,13.87-17.64-.71-.71-10.29,6.26-17.63,14.8Z" style="fill: #eab0b0;"/>
  </g>
</svg>