<?xml version="1.0" encoding="UTF-8"?>
<svg id="watermelon" xmlns="http://www.w3.org/2000/svg" viewBox="0 0 246.53 119.25">
  <g id="w-skin">
    <path id="w-skin-dark-green-fill" d="M236.95.52C233.78,146.34,12.73,146.25,9.58.52H.51c3.23,157.69,242.31,157.59,245.51,0h-9.07Z" style="fill: #21660a; stroke: #21660a; stroke-miterlimit: 10;"/>
    <path id="w-skin-light-green-fill" d="M123.27,100.89C67.33,100.89,21.88,56.16,20.65.52h-11.07c3.17,145.82,224.23,145.73,227.37,0h-11.07c-1.22,55.64-46.68,100.38-102.61,100.38Z" style="fill: #eeffd2; stroke: #eeffd2; stroke-miterlimit: 10;"/>
  </g>
  <g id="w-base">
    <path id="w-base-red-fill" d="M123.27,100.89c55.93,0,101.39-44.74,102.61-100.38H20.65c1.22,55.64,46.68,100.38,102.61,100.38Z" style="fill: #db2828; stroke: #db2828; stroke-miterlimit: 10;"/>
    <path id="w-base-med-shade" d="M20.16,0c42.28,0,84.55,0,126.83,0,14.06,38.77-23.06,93.18-75.28,87.3C35.61,75.53,15.95,18.08,20.16,0Z" style="fill: #ef5656;"/>
    <path id="w-base-light-shade" d="M39.26,40.3c-9.93.69-21.48-28.18-11.63-35.49,1.31-.07,1.88,3.44,6.33,17.28,4.77,14.83,6.3,17.59,5.3,18.21Z" style="fill: #f2adad;"/>
  </g>
  <g id="w-seeds">
    <path id="w-seed-mid-bot" d="M122.85,78.74c-1.79,5.5-6.39,14.25.24,14.75,7.47-.56,2.08-10.1-.24-14.75Z" style="fill: #3f2c0d;"/>
    <path id="w-seed-mid-mid" d="M122.85,43.33c-1.79,5.5-6.39,14.25.24,14.75,7.47-.56,2.08-10.1-.24-14.75Z" style="fill: #3f2c0d;"/>
    <path id="w-seed-mid-top" d="M122.85,7.92c-1.79,5.5-6.39,14.25.24,14.75,7.47-.56,2.08-10.1-.24-14.75Z" style="fill: #3f2c0d;"/>
    <path id="w-seed-left-bot-1" d="M89.79,70.62c-.84,5.72-.6,15.6-6.76,13.11-6.45-3.82,2.62-9.98,6.76-13.11Z" style="fill: #3f2c0d;"/>
    <path id="w-seed-left-bot-2" d="M61.37,44.73c-2.86,5.03-6.23,14.32-11.06,9.76-4.62-5.9,6.07-8.34,11.06-9.76Z" style="fill: #3f2c0d;"/>
    <path id="w-seed-left-bot-3" d="M42.72,13.97c-5.3,2.33-13.55,7.77-14.7,1.22-.18-7.49,9.85-3.07,14.7-1.22Z" style="fill: #3f2c0d;"/>
    <path id="w-seed-left-mid-1" d="M98.35,37.21c-5,2.91-14.25,6.37-9.65,11.16,5.94,4.56,8.28-6.15,9.65-11.16Z" style="fill: #3f2c0d;"/>
    <path id="w-seed-left-mid-2" d="M77.86,14.51c-5.78.32-15.59-.8-13.66,5.56,3.23,6.76,10.17-1.72,13.66-5.56Z" style="fill: #3f2c0d;"/>
    <path id="w-seed-right-bot-1" d="M161.85,69.98c.84,5.72.6,15.6,6.76,13.11,6.45-3.82-2.62-9.98-6.76-13.11Z" style="fill: #3f2c0d;"/>
    <path id="w-seed-right-bot-2" d="M191.49,43.72c3.01,4.94,6.66,14.12,11.35,9.42,4.44-6.04-6.32-8.15-11.35-9.42Z" style="fill: #3f2c0d;"/>
    <path id="w-seed-right-bot-3" d="M206.81,13.97c5.3,2.33,13.55,7.77,14.7,1.22.18-7.49-9.85-3.07-14.7-1.22Z" style="fill: #3f2c0d;"/>
    <path id="w-seed-right-mid-1" d="M156.18,31.93c2.29,5.31,4.62,14.92,9.92,10.92,5.24-5.36-5.12-8.96-9.92-10.92Z" style="fill: #3f2c0d;"/>
    <path id="w-seed-right-mid-2" d="M175.27,14.05c3.89,4.28,9.22,12.6,12.94,7.09,3.21-6.77-7.75-6.8-12.94-7.09Z" style="fill: #3f2c0d;"/>
  </g>
</svg>